<svg width="80" height="48" viewBox="0 0 80 48" fill="none" xmlns="http://www.w3.org/2000/svg">
<path d="M1.85292 47.084C1.37626 47.084 0.964592 46.9323 0.617925 46.629C0.314592 46.3257 0.162925 45.9357 0.162925 45.459V40.844C0.162925 40.5407 0.249592 40.0857 0.422925 39.479C0.596258 38.829 1.05126 38.2223 1.78792 37.659L8.54792 31.029C12.0146 28.3856 14.8529 26.154 17.0629 24.334C19.3163 22.4707 20.9846 20.824 22.0679 19.394C23.1513 17.964 23.6929 16.6206 23.6929 15.364C23.6929 13.8906 23.3029 12.6773 22.5229 11.724C21.7863 10.7273 20.4863 10.229 18.6229 10.229C17.3663 10.229 16.3046 10.5106 15.4379 11.074C14.6146 11.594 13.9863 12.2873 13.5529 13.154C13.1196 14.0206 12.8163 14.909 12.6429 15.819C12.4696 16.3823 12.1663 16.7723 11.7329 16.989C11.3429 17.2056 10.9096 17.314 10.4329 17.314H2.30792C1.91793 17.314 1.59293 17.184 1.33293 16.924C1.07293 16.664 0.942925 16.339 0.942925 15.949C0.986258 13.869 1.41959 11.919 2.24293 10.099C3.10959 8.27898 4.30126 6.67565 5.81793 5.28898C7.37793 3.85898 9.21959 2.75398 11.3429 1.97398C13.5096 1.19398 15.9363 0.803984 18.6229 0.803984C22.3063 0.803984 25.4263 1.38898 27.9829 2.55898C30.5829 3.72898 32.5546 5.37565 33.8979 7.49898C35.2413 9.57898 35.9129 12.0273 35.9129 14.844C35.9129 16.9673 35.4363 18.9606 34.4829 20.824C33.5729 22.644 32.2513 24.399 30.5179 26.089C28.8279 27.7356 26.8129 29.4473 24.4729 31.224L18.4929 37.269H35.1979C35.6746 37.269 36.0646 37.4207 36.3679 37.724C36.7146 38.0273 36.8879 38.4173 36.8879 38.894V45.459C36.8879 45.9357 36.7146 46.3257 36.3679 46.629C36.0646 46.9323 35.6746 47.084 35.1979 47.084H1.85292ZM60.5733 47.799C56.5 47.799 53.0983 47.1707 50.3683 45.914C47.6383 44.614 45.5583 42.9457 44.1283 40.909C42.7416 38.829 42.005 36.5973 41.9183 34.214C41.9183 33.824 42.0483 33.499 42.3083 33.239C42.5683 32.979 42.8933 32.849 43.2833 32.849H51.9933C52.5566 32.849 52.99 32.979 53.2933 33.239C53.64 33.4557 53.9 33.7373 54.0733 34.084C54.4633 35.0807 54.9616 35.904 55.5683 36.554C56.2183 37.204 56.955 37.6807 57.7783 37.984C58.645 38.2873 59.5983 38.439 60.6383 38.439C61.8516 38.439 62.9783 38.179 64.0183 37.659C65.0583 37.139 65.8816 36.3807 66.4883 35.384C67.1383 34.344 67.4633 33.109 67.4633 31.679C67.4633 30.379 67.16 29.2523 66.5533 28.299C65.99 27.3457 65.1883 26.5873 64.1483 26.024C63.1083 25.4607 61.9383 25.179 60.6383 25.179C59.5983 25.179 58.7533 25.309 58.1033 25.569C57.4533 25.7857 56.9116 26.0673 56.4783 26.414C56.045 26.7607 55.655 27.064 55.3083 27.324C54.9616 27.5406 54.5716 27.649 54.1383 27.649H45.6233C45.2333 27.649 44.8866 27.519 44.5833 27.259C44.3233 26.9557 44.1933 26.609 44.1933 26.219L46.5333 3.53398C46.62 2.88398 46.8583 2.40731 47.2483 2.10398C47.6383 1.75731 48.115 1.58398 48.6783 1.58398H74.7433C75.22 1.58398 75.61 1.73565 75.9133 2.03898C76.2167 2.34232 76.3683 2.73232 76.3683 3.20898V9.31898C76.3683 9.79565 76.2167 10.1856 75.9133 10.489C75.61 10.7923 75.22 10.944 74.7433 10.944H55.8933L55.0483 19.394C56.0016 18.744 57.1066 18.224 58.3633 17.834C59.6633 17.4007 61.4183 17.184 63.6283 17.184C65.7083 17.184 67.68 17.5306 69.5433 18.224C71.45 18.9173 73.14 19.914 74.6133 21.214C76.13 22.514 77.3 24.074 78.1233 25.894C78.99 27.6706 79.4233 29.6856 79.4233 31.939C79.4233 35.0157 78.665 37.7457 77.1483 40.129C75.675 42.5123 73.53 44.3973 70.7133 45.784C67.8966 47.1273 64.5166 47.799 60.5733 47.799Z" fill="#081944"/>
</svg>
