<svg width="64" height="61" viewBox="0 0 64 61" fill="none" xmlns="http://www.w3.org/2000/svg">
<path d="M54.9275 38.6791C54.9275 40.7046 54.9275 42.4899 54.9275 44.2831C54.8875 47.8857 53.1142 49.647 49.4876 49.699C48.4308 49.699 47.3781 49.699 45.945 49.699C45.945 51.5724 45.945 53.2696 45.945 54.9628C45.913 59.0538 44.1717 60.799 40.0808 60.799C28.6059 60.799 17.131 60.799 5.65607 60.799C1.79329 60.799 0.0160115 59.0458 0.00800575 55.195C0.00266858 46.0551 0 36.9165 0 27.7793C0 23.9565 1.80129 22.1753 5.64005 22.1392C6.63677 22.1392 7.64149 22.1392 8.95444 22.1392C8.95444 20.2659 8.95444 18.4966 8.95444 16.7273C8.98646 12.9126 10.7757 11.1553 14.6305 11.1233C18.0089 11.1233 18.0089 11.1233 18.0089 7.70886C18.0129 0.960008 18.9856 0.00332054 25.7825 0.00332054C28.7166 0.00332054 31.6508 0.0593608 34.5889 0.00332054C36.5903 -0.0487169 38.3636 0.50368 39.4884 2.16888C41.8301 5.63937 44.9963 6.67612 49.0673 6.25582C52.2335 5.93158 55.4719 6.14774 58.6742 6.21178C62.0606 6.27583 63.9139 8.0451 63.946 11.4155C64.018 18.7488 64.018 26.0874 63.946 33.4313C63.9139 36.8538 61.9445 38.6351 58.494 38.6951C57.3692 38.6911 56.2564 38.6791 54.9275 38.6791ZM22.7243 56.6921C28.3924 56.6921 34.0645 56.668 39.7326 56.6921C41.0735 56.6921 41.8181 56.4479 41.802 54.8307C41.73 47.9618 41.73 41.0915 41.802 34.2199C41.802 32.7469 41.1896 32.4066 39.8847 32.4306C36.8145 32.4867 33.7082 32.1424 30.6781 32.5147C25.5824 33.1471 21.6235 31.7141 18.6374 27.4671C18.1811 26.8026 16.9802 26.4023 16.1036 26.3743C12.8372 26.2502 9.56287 26.4263 6.30053 26.2862C4.47522 26.2102 4.06292 26.8826 4.07893 28.5919C4.15098 37.1941 4.175 45.8042 4.07893 54.4064C4.05491 56.3758 4.80746 56.7361 6.52869 56.7121C11.9166 56.632 17.3204 56.6841 22.7243 56.6841V56.6921ZM45.941 45.6001C47.1859 45.6001 48.0545 45.5401 48.9112 45.6001C50.2841 45.7162 50.8165 45.1758 50.8085 43.7788C50.7605 36.9099 50.7605 30.0436 50.8085 23.18C50.8085 21.7149 50.1841 21.3947 48.8791 21.4227C45.881 21.4908 42.8468 21.1705 39.8847 21.5028C34.765 22.0872 30.63 20.8583 27.6919 16.3951C27.4604 16.0845 27.1675 15.8248 26.8315 15.632C26.4955 15.4392 26.1235 15.3175 25.7385 15.2743C22.0078 15.1702 18.2731 15.1902 14.5304 15.2743C14.0701 15.2743 13.2655 15.9268 13.2375 16.319C13.1014 18.2124 13.1735 20.1218 13.1735 22.4034C18.4933 20.8663 21.4594 23.8965 24.3815 27.2069C25.0623 27.8779 25.9683 28.2716 26.9234 28.3117C31.5867 28.4197 36.2541 28.3437 40.9334 28.3757C43.3351 28.3757 45.0764 29.5766 45.6448 31.6541C45.873 32.6256 45.9753 33.6225 45.949 34.6202C45.965 38.2068 45.945 41.7854 45.945 45.5921L45.941 45.6001ZM54.9235 34.4881C56.1243 34.4881 57.093 34.4281 58.0657 34.4881C59.3787 34.5882 59.807 34.0438 59.795 32.7509C59.7523 25.8125 59.7523 18.8742 59.795 11.9359C59.795 10.711 59.3386 10.2907 58.1418 10.3107C55.1436 10.3628 52.1095 10.0465 49.1473 10.3868C43.9036 11.0032 39.6285 9.79836 36.5943 5.18705C36.3744 4.91012 36.0993 4.68203 35.7864 4.51732C35.4735 4.3526 35.1297 4.25488 34.777 4.23036C31.0423 4.1423 27.3076 4.1503 23.5689 4.23036C23.0886 4.23036 22.24 4.83079 22.212 5.19906C22.0719 7.09242 22.1479 9.00579 22.1479 10.8031C22.3517 10.9059 22.5632 10.9929 22.7804 11.0633C22.9751 11.1128 23.1767 11.129 23.3768 11.1113C27.3397 10.4228 30.1817 12.1561 32.4433 15.2343C32.6158 15.5225 32.8546 15.7654 33.1398 15.9428C34.0885 16.4111 35.0612 17.1436 36.0459 17.1797C40.309 17.3158 44.584 17.2317 48.8551 17.2397C53.2022 17.2397 54.9155 18.9489 54.9275 23.272C54.9355 26.9307 54.9275 30.5813 54.9275 34.4801L54.9235 34.4881Z" fill="white"/>
<path d="M13.8138 49.5309C13.8459 48.9336 13.8459 48.335 13.8138 47.7377C13.6497 46.1805 14.134 45.488 15.8833 45.48C17.6326 45.472 17.8207 46.3407 17.7526 47.7056C17.6846 49.0324 17.6846 50.3617 17.7526 51.6885C17.8287 53.0855 17.0842 53.3577 15.9073 53.3417C14.7305 53.3257 13.7177 53.3177 13.8178 51.7205C13.8498 50.992 13.8138 50.2595 13.8138 49.5309Z" fill="white"/>
<path d="M11.7044 49.371C11.7044 49.9714 11.6604 50.5719 11.7044 51.1643C11.8365 52.5973 11.4923 53.3859 9.77905 53.3659C8.1779 53.3659 7.6255 52.7855 7.74559 51.2484C7.81565 50.1206 7.81565 48.9897 7.74559 47.8619C7.67754 46.4609 7.74559 45.4602 9.68298 45.4602C11.4923 45.4602 11.8445 46.2608 11.6844 47.7579C11.6604 48.3063 11.7044 48.8426 11.7044 49.371Z" fill="white"/>
<path d="M23.7569 50.5718C23.7169 51.8928 24.2293 53.3979 21.8556 53.3739C19.8101 53.3739 19.7261 52.2891 19.8301 50.836C19.9302 49.4951 19.2577 47.8579 21.7835 47.8339C24.0972 47.8179 23.793 49.1668 23.7569 50.5718Z" fill="white"/>
</svg>
