<svg width="64" height="66" viewBox="0 0 64 66" fill="none" xmlns="http://www.w3.org/2000/svg">
<path d="M51.5183 24.232L46.6071 24.8976V20.1285C32.6446 26.1681 18.9297 26.1843 5.22693 20.2421C4.28528 25.4537 5.1214 27.3492 9.84186 29.3015C18.9337 33.06 28.2813 32.9545 37.71 30.7668C38.1646 30.6612 38.6152 30.5314 39.1793 30.3852C38.662 32.0379 38.0619 33.6635 37.3813 35.2559C37.1459 35.7551 36.2813 36.1326 35.6481 36.2422C25.4401 38.0037 15.4593 37.5857 5.95347 32.9342C5.64768 32.8163 5.33447 32.7187 5.01587 32.642C5.01587 34.6065 4.72769 36.4776 5.11735 38.1904C5.38523 39.3513 6.41618 40.5649 7.44308 41.2792C10.8867 43.6132 14.9219 44.9221 19.0798 45.054C24.1778 45.2935 29.3041 44.916 34.4183 44.7983C34.8242 44.7983 35.2301 44.7577 35.5061 44.7414L34.7917 49.7704C24.6445 51.2438 14.7247 50.7202 5.2797 46.0119C4.11886 51.9703 5.23911 54.2148 10.6496 56.3092C17.9555 59.1504 25.5375 59.4021 33.2169 58.3386C33.7405 58.2656 34.2641 58.2128 34.9135 58.1357V63.4122C30.5015 63.5056 26.0611 63.8465 21.6532 63.6314C16.2305 63.3676 10.9337 62.2352 6.07118 59.6212C2.0529 57.4619 -0.0942382 54.43 0.00317459 49.539C0.246707 37.7115 0.214236 25.8718 0.00317459 14.0402C-0.0739439 9.51861 1.88649 6.61246 5.56788 4.50185C10.4385 1.71747 15.7922 0.633748 21.2797 0.19945C28.1595 -0.340379 34.9581 0.146685 41.4888 2.513C43.5143 3.25756 45.4525 4.22117 47.2687 5.38668C50.2073 7.25782 51.6766 9.98132 51.5467 13.5896C51.4168 17.0924 51.5183 20.6034 51.5183 24.232ZM25.6999 19.7672C28.2529 19.5643 30.8262 19.4831 33.3589 19.0772C37.3204 18.4968 41.1925 17.5227 44.5168 15.132C47.155 13.2325 47.2159 11.3329 44.5452 9.5389C42.864 8.41545 41.0367 7.52776 39.1144 6.90064C32.3767 4.69667 25.4523 4.46532 18.4832 5.47598C14.3878 6.07263 10.3655 7.01834 6.95195 9.53484C4.39487 11.4182 4.37863 13.1472 6.90731 15.0062C8.11446 15.8683 9.42314 16.5785 10.8038 17.1209C15.5689 19.0772 20.5857 19.6455 25.6999 19.7875V19.7672Z" fill="#3768FC"/>
<path d="M50.9093 45.0538C54.2863 45.0538 57.6633 45.0294 61.0565 45.0538C63.2808 45.0538 63.9545 45.7397 63.9708 47.9802C64.0032 52.445 64.0154 56.9097 63.9708 61.3501C63.9342 64.3131 62.4122 65.7459 59.3883 65.7581C53.6491 65.7743 47.9112 65.7743 42.1747 65.7581C39.2442 65.7581 37.6368 64.2076 37.6084 61.2933C37.5597 56.9057 37.576 52.514 37.6084 48.1264C37.6084 45.825 38.3593 45.0741 40.6201 45.0579C44.0255 45.0294 47.4674 45.0538 50.9093 45.0538ZM50.7389 61.3988C54.0956 61.3988 54.1158 61.3988 53.3203 58.1152C52.9834 56.7311 52.6668 55.5257 53.6897 54.1416C54.7125 52.7575 54.128 51.2517 52.8535 50.1842C52.3217 49.6967 51.6342 49.4137 50.9133 49.3855C50.1924 49.3572 49.4848 49.5856 48.9164 50.03C47.5202 50.9919 46.8464 52.6358 47.7718 53.9102C49.1072 55.7408 48.3726 57.3197 47.991 59.0285C47.4715 61.3704 47.4755 61.3867 49.9271 61.4029L50.7389 61.3988Z" fill="#3768FC"/>
<path d="M44.3178 42.1315H40.1088C38.7409 37.4232 40.2143 32.1913 43.7618 29.4354C47.4837 26.5576 51.5832 26.0909 55.7354 28.2908C61.2758 31.2253 61.982 36.3273 61.3813 42.0544H56.9937C56.9937 40.8367 56.9937 39.5663 56.9937 38.308C56.9328 34.3709 54.327 31.6028 50.67 31.5784C47.0129 31.5541 44.3665 34.3304 44.3219 38.2593C44.3057 39.4729 44.3178 40.6825 44.3178 42.1315Z" fill="#3768FC"/>
</svg>
