<svg width="107" height="150" viewBox="0 0 107 150" fill="none" xmlns="http://www.w3.org/2000/svg">
<path d="M86.0449 43.2883C85.9212 42.6895 85.7801 42.0965 85.6333 41.512C85.6131 41.4314 85.5901 41.3537 85.5699 41.2759C85.4404 40.775 85.2993 40.2827 85.1525 39.7933C85.0718 39.537 84.9884 39.2808 84.9106 39.0246C84.8012 38.6762 84.6746 38.3336 84.5508 37.9939C84.5277 37.9335 84.5076 37.8701 84.4845 37.8097C84.0661 36.6811 83.5988 35.5813 83.0825 34.5104L83.0623 34.4701C82.8896 34.1188 82.7197 33.7676 82.5355 33.4221C82.4635 33.281 82.38 33.1342 82.3052 33.0018L82.1583 32.7398C82.0489 32.5411 81.9424 32.3396 81.8301 32.1438C81.7178 31.9481 81.5624 31.7005 81.4299 31.4817C81.3781 31.3982 81.3321 31.3176 81.2802 31.237C80.6757 30.2562 80.0279 29.309 79.3369 28.3954C79.3081 28.3551 79.2765 28.3177 79.2448 28.2803C78.9396 27.8772 78.6258 27.4828 78.3034 27.097C78.2113 26.9847 78.1162 26.8753 78.0155 26.7659C77.7276 26.4291 77.4397 26.098 77.1374 25.7698C77.0683 25.6949 77.005 25.623 76.9359 25.551C76.1681 24.7276 75.3687 23.9416 74.5377 23.1931L74.5003 23.1586C74.101 22.8073 73.697 22.4638 73.2882 22.1279C73.1817 22.0415 73.0752 21.9523 72.9629 21.8659C72.6088 21.578 72.246 21.3074 71.8833 21.031L71.6386 20.8496C71.1981 20.5301 70.7547 20.2191 70.2998 19.9168C69.845 19.6145 69.3642 19.3151 68.8834 19.0272L68.5955 18.866C68.2183 18.6414 67.8383 18.4284 67.4439 18.2182L67.0523 18.011C66.681 17.8181 66.3038 17.6281 65.9267 17.4352L65.5495 17.2538C65.0601 17.0235 64.5678 16.8047 64.0669 16.5945C63.5544 16.3815 63.0333 16.1799 62.5122 15.9899L62.1495 15.8632C61.7522 15.7222 61.3549 15.5897 60.9489 15.4659C60.8539 15.4314 60.7589 15.4026 60.661 15.3738C60.2004 15.2356 59.7398 15.1032 59.2734 14.9823L58.8645 14.8758C57.7974 14.607 56.714 14.3873 55.6142 14.2165C55.4731 14.1934 55.3263 14.1762 55.1881 14.156C54.7793 14.0955 54.3705 14.0437 53.9559 13.9977L53.4319 13.9458C53.0317 13.9084 52.6258 13.8767 52.2199 13.8508L51.7448 13.8249C50.6249 13.7673 49.4992 13.7673 48.3678 13.8249L47.8813 13.8537C47.4724 13.8767 47.0665 13.9055 46.6577 13.9458C46.3986 13.966 46.1481 13.9919 45.8861 14.0178C45.5781 14.0466 45.2729 14.0898 44.9649 14.1359C44.7662 14.1675 44.5589 14.1906 44.3574 14.2251C43.7816 14.3115 43.2202 14.4094 42.6502 14.513C33.0831 16.4513 24.6777 22.1105 19.283 30.2458C13.8882 38.3811 11.946 48.3261 13.8834 57.8934C13.889 57.9315 13.8977 57.969 13.9094 58.0057V58.0719L13.8403 58.0863L18.3372 91.1455C18.3961 91.5867 18.5584 92.0077 18.8109 92.3742C19.0634 92.7408 19.399 93.0424 19.7903 93.2546C20.1815 93.4668 20.6174 93.5835 21.0623 93.5952C21.5072 93.6069 21.9486 93.5133 22.3505 93.322C22.7291 93.1431 23.0626 92.8814 23.3265 92.5562C25.7736 89.5679 28.9405 85.7705 31.782 82.5979C38.5972 86.4808 46.4782 88.0752 54.2668 87.1466C54.4367 87.1294 54.6094 87.1006 54.7822 87.0775C55.047 87.043 55.3119 87.0113 55.5739 86.971C56.1353 86.8847 56.6967 86.7868 57.2523 86.6831H57.2725C62.0136 85.7292 66.5201 83.8496 70.534 81.152C74.5478 78.4544 77.9903 74.9917 80.6644 70.9621C83.3385 66.9325 85.1917 62.4151 86.1179 57.6685C87.0442 52.9219 87.0252 48.0392 86.0622 43.2999L86.0449 43.2883ZM55.4933 63.6225C55.4933 63.9855 55.4218 64.3449 55.2829 64.6802C55.144 65.0155 54.9404 65.3202 54.6838 65.5769C54.4271 65.8335 54.1224 66.0371 53.7871 66.176C53.4518 66.3149 53.0924 66.3864 52.7294 66.3864H32.0037C29.6992 66.3878 27.4736 65.5469 25.7458 64.0221C24.0179 62.4972 22.9069 60.3935 22.6217 58.1067C22.3366 55.8199 22.897 53.5077 24.1975 51.6053C25.498 49.7028 27.449 48.3412 29.6833 47.7767C30.1808 47.6482 30.6328 47.3839 30.9887 47.0133C31.3446 46.6426 31.5904 46.1802 31.6985 45.6779C32.3349 42.7301 33.6987 39.9883 35.6656 37.7024C37.6326 35.4164 40.1401 33.6588 42.96 32.5897C45.7799 31.5206 48.8224 31.1739 51.8104 31.5813C54.7985 31.9887 57.6372 33.1371 60.068 34.9221L60.1227 34.9652C62.256 36.54 61.1101 39.9343 58.4586 39.9343H56.5153L56.4376 39.8768C54.6589 38.5734 52.554 37.7884 50.3563 37.6087C48.1586 37.4291 45.954 37.8619 43.9874 38.8591C42.0207 39.8563 40.3688 41.3789 39.2149 43.258C38.0611 45.137 37.4504 47.299 37.4507 49.5041C37.4507 49.9704 37.4363 49.6538 37.4507 49.9762C37.4507 50.0194 37.4507 50.1259 37.4738 50.3534L37.4968 50.6873C37.5241 51.066 37.473 51.4462 37.3468 51.8043C37.2205 52.1623 37.0217 52.4905 36.7628 52.7683C36.504 53.046 36.1907 53.2674 35.8424 53.4186C35.4941 53.5698 35.1184 53.6475 34.7387 53.6469H32.0037C31.131 53.6469 30.294 53.9936 29.6769 54.6107C29.0597 55.2278 28.713 56.0648 28.713 56.9376C28.713 57.8103 29.0597 58.6473 29.6769 59.2644C30.294 59.8815 31.131 60.2282 32.0037 60.2282H52.7323C53.4653 60.2282 54.1683 60.5194 54.6866 61.0377C55.205 61.5561 55.4961 62.259 55.4961 62.992L55.4933 63.6225ZM72.8161 62.7876C71.6751 63.9323 70.319 64.8401 68.8259 65.4587C67.3327 66.0773 65.732 66.3945 64.1158 66.3921H63.5832C63.3291 66.3921 63.0775 66.3421 62.8428 66.2449C62.6081 66.1476 62.3948 66.0051 62.2152 65.8255C62.0355 65.6458 61.893 65.4325 61.7958 65.1978C61.6986 64.9631 61.6485 64.7115 61.6485 64.4574V62.1715C61.6481 61.9162 61.6989 61.6635 61.7978 61.4281C61.8967 61.1927 62.0417 60.9795 62.2243 60.8012C62.4031 60.6199 62.616 60.4757 62.8507 60.3769C63.0853 60.2781 63.3372 60.2266 63.5918 60.2254C65.3363 60.2377 67.0219 59.5956 68.3162 58.426C68.931 57.8811 69.4232 57.2121 69.7603 56.4629C70.0973 55.7138 70.2716 54.9017 70.2716 54.0802C70.2716 53.2587 70.0973 52.4466 69.7603 51.6974C69.4232 50.9483 68.931 50.2792 68.3162 49.7344C67.0233 48.5622 65.3369 47.9189 63.5918 47.9321H57.4279C56.9148 47.9321 56.4227 47.7283 56.0599 47.3655C55.6971 47.0027 55.4933 46.5106 55.4933 45.9975V43.7087C55.4933 43.1956 55.6971 42.7035 56.0599 42.3407C56.4227 41.9778 56.9148 41.774 57.4279 41.774H64.1158C66.5517 41.7719 68.9333 42.4929 70.9591 43.8455C72.9849 45.1981 74.5637 47.1216 75.4954 49.3723C76.4271 51.6229 76.6698 54.0994 76.1929 56.4882C75.7159 58.8769 74.5407 61.0703 72.8161 62.7905V62.7876Z" fill="white"/>
<path fill-rule="evenodd" clip-rule="evenodd" d="M7.36262 51.9453C6.43221 51.9459 5.52286 52.2224 4.74957 52.7397C3.97628 53.2571 3.37377 53.9922 3.01825 54.852C2.66272 55.7118 2.57014 56.6577 2.75221 57.5702C2.93428 58.4826 3.38283 59.3205 4.04114 59.978C4.69944 60.6355 5.53793 61.083 6.45057 61.264C7.36322 61.4449 8.30903 61.3512 9.1684 60.9946C10.0278 60.6381 10.7621 60.0346 11.2785 59.2607C11.795 58.4868 12.0703 57.5771 12.0697 56.6467C12.0694 56.0289 11.9473 55.4173 11.7106 54.8467C11.4738 54.2761 11.127 53.7577 10.6899 53.3211C10.2528 52.8846 9.73397 52.5384 9.16308 52.3023C8.59219 52.0663 7.98039 51.945 7.36262 51.9453ZM73.5992 3.16687C72.1408 3.16687 70.7152 3.59937 69.5026 4.40966C68.2901 5.21994 67.3451 6.37163 66.7871 7.71904C66.2291 9.06646 66.0833 10.5491 66.368 11.9794C66.6527 13.4097 67.3552 14.7235 68.3867 15.7545C69.4181 16.7855 70.7321 17.4875 72.1625 17.7717C73.593 18.0558 75.0755 17.9094 76.4227 17.3509C77.7699 16.7924 78.9212 15.8469 79.731 14.6341C80.5409 13.4212 80.9728 11.9954 80.9722 10.537C80.9715 8.58209 80.1943 6.70746 78.8117 5.32537C77.4291 3.94328 75.5541 3.16687 73.5992 3.16687ZM46.01 6.98768e-07C44.8367 -0.000568689 43.6897 0.346847 42.714 0.9983C41.7382 1.64975 40.9776 2.57597 40.5284 3.65978C40.0792 4.74359 39.9615 5.93629 40.1902 7.087C40.419 8.23771 40.9839 9.29472 41.8135 10.1243C42.6431 10.9539 43.7001 11.5188 44.8508 11.7476C46.0015 11.9763 47.1942 11.8586 48.278 11.4094C49.3618 10.9601 50.288 10.1995 50.9395 9.2238C51.5909 8.24806 51.9383 7.10103 51.9378 5.92781C51.9347 4.35739 51.3089 2.85229 50.1977 1.74264C49.0864 0.63299 47.5804 0.00939665 46.01 0.00863727V6.98768e-07ZM21.8813 13.0849C20.9508 13.0849 20.0411 13.3609 19.2675 13.8779C18.4938 14.395 17.8908 15.1299 17.5349 15.9896C17.1789 16.8494 17.0859 17.7954 17.2676 18.708C17.4494 19.6206 17.8977 20.4588 18.5559 21.1166C19.2141 21.7744 20.0526 22.2222 20.9653 22.4034C21.878 22.5846 22.824 22.491 23.6835 22.1345C24.5431 21.778 25.2776 21.1746 25.7941 20.4006C26.3107 19.6266 26.5861 18.7168 26.5855 17.7863C26.5832 16.5404 26.0865 15.3464 25.2045 14.4665C24.3224 13.5866 23.1272 13.0928 21.8813 13.0936V13.0849ZM92.0102 19.4964C90.2239 19.4958 88.4775 20.025 86.9919 21.0171C85.5063 22.0091 84.3483 23.4194 83.6643 25.0696C82.9803 26.7198 82.801 28.5358 83.1492 30.2879C83.4973 32.04 84.3573 33.6495 85.6202 34.9129C86.8831 36.1762 88.4924 37.0366 90.2443 37.3853C91.9963 37.7341 93.8124 37.5554 95.4628 36.8719C97.1133 36.1884 98.5239 35.0309 99.5164 33.5456C100.509 32.0603 101.039 30.3141 101.039 28.5278C101.036 26.1345 100.084 23.84 98.3914 22.1482C96.6986 20.4565 94.4035 19.5058 92.0102 19.5051V19.4964ZM8.58906 34.1504C7.86148 34.151 7.15041 34.3672 6.54572 34.7719C5.94104 35.1765 5.4699 35.7513 5.19186 36.4237C4.91382 37.0961 4.84137 37.8358 4.98366 38.5493C5.12596 39.2628 5.47661 39.9181 5.99128 40.4324C6.50596 40.9467 7.16156 41.2968 7.8752 41.4386C8.58884 41.5803 9.32848 41.5073 10.0006 41.2287C10.6728 40.9501 11.2472 40.4785 11.6514 39.8736C12.0556 39.2686 12.2713 38.5573 12.2713 37.8297C12.269 36.8549 11.8799 35.9208 11.1896 35.2326C10.4992 34.5444 9.56389 34.1583 8.58906 34.159V34.1504Z" fill="white"/>
<path d="M14.5485 105.347C13.0187 104.503 11.2948 104.073 9.54771 104.101H2.35028C2.04335 104.093 1.73803 104.147 1.45226 104.26C1.16649 104.372 0.906041 104.54 0.686231 104.754C0.460816 104.974 0.283488 105.237 0.165523 105.529C0.0475591 105.82 -0.00846072 106.133 0.00103323 106.447V130.775C0.00916861 131.238 0.152648 131.689 0.413796 132.071C0.674945 132.454 1.04236 132.752 1.47077 132.929C1.89919 133.105 2.36989 133.153 2.82491 133.065C3.27993 132.978 3.69938 132.759 4.0316 132.436C4.24559 132.216 4.41362 131.956 4.52585 131.671C4.63807 131.386 4.69222 131.081 4.68513 130.775V123.384H9.54771C11.2934 123.416 13.018 122.999 14.5571 122.175C15.9965 121.392 17.1874 120.221 17.9946 118.795C18.8261 117.299 19.251 115.612 19.2268 113.901C19.2578 112.134 18.8345 110.39 17.9975 108.834C17.196 107.372 16.0012 106.165 14.5485 105.347ZM14.0044 116.524C13.5785 117.273 12.9577 117.894 12.2079 118.32C11.3893 118.769 10.467 118.996 9.53332 118.976H4.69376V108.509H9.54771C10.4814 108.489 11.4026 108.726 12.2108 109.194C12.9706 109.649 13.594 110.301 14.0159 111.079C14.469 111.945 14.6958 112.91 14.6752 113.886C14.687 114.809 14.4557 115.719 14.0044 116.524Z" fill="white"/>
<path d="M34.6495 113.676C33.1176 112.773 31.363 112.318 29.5854 112.363C27.7392 112.332 25.9183 112.795 24.3111 113.704C22.791 114.585 21.5428 115.867 20.7038 117.41C19.8144 119.076 19.3664 120.942 19.4025 122.831C19.3683 124.721 19.8426 126.585 20.7757 128.229C21.683 129.79 23.0028 131.071 24.5904 131.931C25.9847 132.668 27.5158 133.11 29.0883 133.23C30.6608 133.35 32.2412 133.145 33.7311 132.628C34.8733 132.262 35.9444 131.703 36.898 130.975C37.1447 130.808 37.3444 130.58 37.478 130.313C37.6115 130.047 37.6745 129.75 37.6609 129.452C37.6356 129.156 37.55 128.868 37.4094 128.605C37.2688 128.343 37.0762 128.112 36.8433 127.927C36.4491 127.59 35.9419 127.415 35.424 127.437C34.903 127.454 34.4001 127.632 33.9845 127.947C33.4451 128.327 32.8523 128.625 32.2254 128.831C31.5453 129.079 30.8277 129.21 30.1036 129.216C28.9188 129.238 27.7487 128.951 26.7093 128.382C25.7523 127.845 24.9569 127.062 24.4061 126.113C24.1261 125.63 23.9148 125.111 23.7785 124.57H36.8548C37.1337 124.579 37.4115 124.533 37.6724 124.434C37.9333 124.335 38.1721 124.186 38.3749 123.994C38.5743 123.804 38.7318 123.575 38.8374 123.32C38.943 123.066 38.9944 122.792 38.9881 122.517C39.0206 120.715 38.6415 118.928 37.8797 117.295C37.173 115.803 36.0515 114.547 34.6495 113.676ZM23.8505 120.735C23.9608 120.31 24.1122 119.896 24.3025 119.5C24.7459 118.566 25.451 117.781 26.3322 117.24C27.3179 116.665 28.445 116.379 29.5854 116.414C30.5389 116.369 31.4839 116.612 32.2973 117.111C33.1106 117.611 33.7548 118.344 34.1457 119.215C34.3771 119.7 34.5483 120.211 34.6553 120.738L23.8505 120.735Z" fill="white"/>
<path d="M59.4807 117.487C58.5652 115.911 57.2519 114.602 55.672 113.693C54.0921 112.783 52.3011 112.305 50.4781 112.305C48.6552 112.305 46.8641 112.783 45.2843 113.693C43.7044 114.602 42.391 115.911 41.4756 117.487C40.5493 119.113 40.0742 120.957 40.0994 122.828C40.0721 124.676 40.5055 126.501 41.3604 128.139C42.1629 129.669 43.3546 130.96 44.8152 131.882C46.3129 132.789 48.0304 133.269 49.7814 133.269C51.5324 133.269 53.2499 132.789 54.7476 131.882C55.2811 131.547 55.7814 131.161 56.2418 130.731V130.851C56.2418 131.464 56.4852 132.052 56.9185 132.485C57.3518 132.918 57.9395 133.162 58.5522 133.162C59.165 133.162 59.7526 132.918 60.1859 132.485C60.6192 132.052 60.8626 131.464 60.8626 130.851V122.517C60.837 120.75 60.3614 119.019 59.4807 117.487ZM55.6113 126.035C55.1246 126.951 54.4021 127.72 53.5183 128.263C52.6035 128.794 51.5646 129.074 50.5069 129.074C49.4492 129.074 48.4103 128.794 47.4955 128.263C46.6017 127.722 45.8676 126.953 45.3679 126.035C44.8363 125.053 44.5657 123.95 44.582 122.834C44.5634 121.706 44.834 120.593 45.3679 119.6C45.8674 118.682 46.6015 117.912 47.4955 117.369C48.41 116.838 49.449 116.557 50.5069 116.557C51.5648 116.557 52.6038 116.838 53.5183 117.369C54.4026 117.91 55.1254 118.679 55.6113 119.595C56.1357 120.593 56.4001 121.706 56.38 122.834C56.3974 123.948 56.133 125.05 55.6113 126.035Z" fill="white"/>
<path d="M78.0674 113.072C77.2728 112.548 76.1327 112.292 74.5867 112.292C73.1224 112.279 71.68 112.647 70.4007 113.36C69.9033 113.637 69.4346 113.963 69.0015 114.333C68.9562 113.871 68.7588 113.436 68.4401 113.098C68.2124 112.892 67.9458 112.734 67.6561 112.633C67.3664 112.531 67.0593 112.489 66.753 112.508C66.4474 112.481 66.1398 112.522 65.8517 112.627C65.5635 112.732 65.3019 112.899 65.0852 113.116C64.8685 113.333 64.7019 113.595 64.5971 113.884C64.4923 114.172 64.4518 114.479 64.4786 114.785V130.847C64.4583 131.156 64.5023 131.466 64.6079 131.757C64.7134 132.049 64.8782 132.315 65.0918 132.54C65.5476 132.944 66.1449 133.151 66.753 133.115C67.0622 133.136 67.3723 133.092 67.6636 132.986C67.955 132.881 68.2213 132.716 68.4458 132.502C68.8499 132.046 69.0569 131.449 69.0216 130.841V120.367C69.0048 119.926 69.078 119.486 69.2369 119.074C69.3958 118.663 69.637 118.288 69.9458 117.972C70.679 117.273 71.6008 116.805 72.5973 116.625C73.8962 116.379 75.2319 116.402 76.5214 116.694C76.8661 116.779 77.2248 116.793 77.5751 116.734C77.9231 116.672 78.2471 116.515 78.5107 116.279C78.8008 116.011 78.9967 115.657 79.0693 115.269C79.219 114.67 79.1643 113.809 78.0674 113.072Z" fill="white"/>
<path d="M87.0755 128.569H86.1773C85.9556 128.569 85.6245 128.506 85.2992 127.945C84.9838 127.345 84.8328 126.672 84.8616 125.996V106.375C84.8725 106.07 84.8216 105.765 84.7122 105.479C84.6027 105.194 84.4368 104.933 84.2244 104.713C84.012 104.493 83.7574 104.318 83.4759 104.198C83.1944 104.079 82.8916 104.017 82.5858 104.017C82.2799 104.017 81.9771 104.079 81.6956 104.198C81.4141 104.318 81.1595 104.493 80.9471 104.713C80.7347 104.933 80.5688 105.194 80.4593 105.479C80.3499 105.765 80.2991 106.07 80.3099 106.375V125.996C80.2865 127.244 80.534 128.482 81.0354 129.626C81.4819 130.645 82.195 131.524 83.0997 132.171C83.9999 132.804 85.077 133.136 86.1773 133.121H86.2493C86.9773 133.15 87.6948 132.94 88.2933 132.525C88.566 132.339 88.7887 132.088 88.9419 131.795C89.095 131.503 89.1738 131.177 89.1714 130.847C89.1901 130.255 88.9844 129.678 88.5956 129.231C88.4056 129.017 88.1712 128.847 87.9087 128.733C87.6461 128.618 87.3618 128.563 87.0755 128.569Z" fill="white"/>
<path d="M104.43 128.785H96.2536L105.737 116.227C105.803 116.152 105.862 116.072 105.915 115.988L106.085 115.763L106.048 115.729C106.183 115.394 106.249 115.036 106.241 114.675C106.241 113.279 105.469 112.507 104.073 112.507H91.82C90.4208 112.507 89.6521 113.279 89.6521 114.675C89.6521 116.071 90.4208 116.843 91.82 116.843H100.025L90.5244 129.401C90.4577 129.475 90.3979 129.555 90.3459 129.64L90.1703 129.87L90.2077 129.902C90.0755 130.236 90.011 130.593 90.0177 130.953C90.0177 132.352 90.7893 133.121 92.1856 133.121H104.439C105.838 133.121 106.606 132.352 106.606 130.953C106.606 129.553 105.829 128.785 104.43 128.785Z" fill="white"/>
<path d="M10.6792 140.367C11.0271 140.005 11.4403 139.712 11.897 139.504C12.3558 139.293 12.8548 139.185 13.3595 139.187C13.7878 139.183 14.2141 139.245 14.6234 139.371C15.0112 139.492 15.3679 139.697 15.6685 139.97L15.7721 140.045C15.8016 140.063 15.8324 140.078 15.8642 140.091C15.8936 140.102 15.9248 140.108 15.9563 140.108C16.0041 140.11 16.0517 140.102 16.0956 140.083C16.1394 140.064 16.1785 140.035 16.2097 139.999C16.2694 139.928 16.3021 139.838 16.3018 139.745C16.3039 139.702 16.2955 139.66 16.2775 139.621C16.2594 139.581 16.2322 139.547 16.1982 139.521C15.803 139.187 15.3517 138.926 14.8652 138.749C14.3813 138.58 13.8722 138.494 13.3595 138.496C12.7532 138.491 12.1527 138.615 11.5976 138.859C11.057 139.096 10.568 139.436 10.1581 139.861C9.74908 140.287 9.42385 140.786 9.19939 141.332C8.96824 141.891 8.8508 142.491 8.85392 143.097C8.84987 143.707 8.97138 144.312 9.21091 144.873C9.44085 145.42 9.77196 145.919 10.1869 146.344C10.5984 146.767 11.087 147.107 11.6264 147.346C12.1699 147.588 12.7588 147.712 13.3538 147.709C13.8689 147.709 14.3815 147.637 14.8767 147.496C15.3707 147.352 15.8197 147.085 16.1809 146.718C16.2147 146.688 16.2388 146.648 16.25 146.603C16.2547 146.561 16.2547 146.519 16.25 146.477C16.2513 146.432 16.2439 146.388 16.2281 146.346C16.2123 146.305 16.1884 146.267 16.1579 146.235C16.0979 146.176 16.0218 146.135 15.9391 146.12C15.9006 146.112 15.861 146.113 15.8231 146.123C15.7852 146.133 15.75 146.152 15.7203 146.177C15.3914 146.452 15.0161 146.667 14.6119 146.81C14.2035 146.951 13.7741 147.021 13.3422 147.018C12.8348 147.022 12.3324 146.918 11.8682 146.713C11.4127 146.514 11.0008 146.227 10.6562 145.869C10.3069 145.505 10.0278 145.079 9.83277 144.614C9.63659 144.132 9.5387 143.616 9.54488 143.097C9.53908 142.588 9.63705 142.083 9.83277 141.614C10.0355 141.15 10.3225 140.727 10.6792 140.367Z" fill="white"/>
<path d="M24.3859 141.671C23.8853 141.387 23.3177 141.242 22.742 141.251C22.1637 141.242 21.5934 141.387 21.0895 141.671C20.6085 141.944 20.2105 142.342 19.9379 142.823C19.6622 143.327 19.5178 143.892 19.5178 144.467C19.5178 145.041 19.6622 145.607 19.9379 146.111C20.21 146.592 20.6082 146.99 21.0895 147.262C21.5934 147.546 22.1637 147.691 22.742 147.683C23.3177 147.692 23.8853 147.547 24.3859 147.262C24.8665 146.989 25.2644 146.591 25.5375 146.111C25.8132 145.607 25.9577 145.041 25.9577 144.467C25.9577 143.892 25.8132 143.327 25.5375 142.823C25.2638 142.343 24.8661 141.945 24.3859 141.671ZM24.9301 145.777C24.7194 146.158 24.4101 146.475 24.0347 146.695C23.7458 146.866 23.4259 146.978 23.0935 147.024C22.7611 147.07 22.4228 147.05 22.0982 146.965C21.7737 146.879 21.4693 146.73 21.2028 146.526C20.9362 146.322 20.7128 146.068 20.5454 145.777C20.3262 145.374 20.2113 144.923 20.2113 144.465C20.2113 144.007 20.3262 143.556 20.5454 143.154C20.8931 142.577 21.4519 142.158 22.1033 141.986C22.7547 141.814 23.4475 141.902 24.0347 142.233C24.4096 142.455 24.7186 142.773 24.9301 143.154C25.1455 143.557 25.2583 144.008 25.2583 144.465C25.2583 144.923 25.1455 145.373 24.9301 145.777Z" fill="white"/>
<path d="M34.3358 141.565C33.8745 141.333 33.3637 141.216 32.8474 141.225C32.3788 141.22 31.9164 141.332 31.5029 141.553C31.1787 141.728 30.8929 141.966 30.6623 142.253V141.651C30.6653 141.605 30.6588 141.558 30.6429 141.515C30.627 141.471 30.6022 141.431 30.5701 141.398C30.5368 141.366 30.4974 141.342 30.4543 141.326C30.4113 141.31 30.3655 141.303 30.3197 141.305C30.2282 141.302 30.1391 141.335 30.0721 141.398C30.0386 141.43 30.0126 141.47 29.9957 141.514C29.9788 141.557 29.9715 141.604 29.9742 141.651V147.251C29.9725 147.296 29.9803 147.342 29.9971 147.385C30.014 147.427 30.0395 147.466 30.0721 147.498C30.1046 147.53 30.1433 147.555 30.1859 147.572C30.2284 147.589 30.2739 147.597 30.3197 147.596C30.3659 147.598 30.4121 147.59 30.4553 147.574C30.4984 147.557 30.5375 147.531 30.5701 147.498C30.6012 147.465 30.6254 147.426 30.6412 147.384C30.6571 147.341 30.6642 147.296 30.6623 147.251V143.732C30.6595 143.399 30.7601 143.073 30.9502 142.8C31.1487 142.518 31.4191 142.294 31.7332 142.152C32.0819 141.99 32.4629 141.909 32.8474 141.916C33.2397 141.908 33.6283 141.993 33.9817 142.163C34.3124 142.327 34.5877 142.584 34.7734 142.903C34.9804 143.288 35.0799 143.722 35.0613 144.159V147.251C35.0596 147.296 35.0674 147.342 35.0843 147.385C35.1011 147.427 35.1266 147.466 35.1592 147.498C35.1919 147.53 35.2306 147.555 35.2731 147.572C35.3156 147.589 35.3611 147.597 35.4068 147.596C35.499 147.597 35.5881 147.562 35.6544 147.498C35.6864 147.465 35.7116 147.427 35.7284 147.384C35.7452 147.342 35.7533 147.296 35.7523 147.251V144.159C35.771 143.599 35.6398 143.044 35.3723 142.552C35.1306 142.129 34.7703 141.785 34.3358 141.565Z" fill="white"/>
<path d="M43.6951 144.478C43.269 144.265 42.8074 144.134 42.3334 144.089C41.9882 144.046 41.6491 143.962 41.3229 143.841C41.1098 143.766 40.9208 143.635 40.7759 143.461C40.6646 143.31 40.606 143.126 40.6089 142.937C40.611 142.79 40.6487 142.645 40.7189 142.515C40.7891 142.385 40.8896 142.274 41.0119 142.192C41.3424 141.966 41.7383 141.857 42.1376 141.881C42.4644 141.874 42.7887 141.939 43.0877 142.071C43.3602 142.198 43.5981 142.388 43.7815 142.626C43.8346 142.698 43.9127 142.748 44.0003 142.765C44.0825 142.782 44.1683 142.77 44.2422 142.73C44.2863 142.711 44.3253 142.681 44.3563 142.644C44.3872 142.607 44.4093 142.564 44.4207 142.517C44.4294 142.474 44.4283 142.43 44.4173 142.387C44.4063 142.345 44.3858 142.306 44.3573 142.272C44.1349 141.955 43.8385 141.696 43.4936 141.518C43.0816 141.317 42.6274 141.219 42.1693 141.23C41.776 141.222 41.3848 141.29 41.0177 141.432C40.7031 141.552 40.4294 141.76 40.2289 142.031C40.0314 142.315 39.9305 142.655 39.941 143.001C39.945 143.209 39.9969 143.414 40.0928 143.599C40.1886 143.784 40.3258 143.945 40.4937 144.069C40.9935 144.428 41.5819 144.643 42.1952 144.691C42.6629 144.738 43.1148 144.886 43.5195 145.125C43.6495 145.201 43.7575 145.31 43.8327 145.44C43.908 145.57 43.9479 145.718 43.9485 145.868C43.9465 146.024 43.9094 146.176 43.8401 146.316C43.7709 146.455 43.6711 146.576 43.5483 146.671C43.2777 146.902 42.8228 147.017 42.1779 147.017C41.8255 147.02 41.4747 146.968 41.1386 146.861C40.8216 146.76 40.5399 146.57 40.3267 146.314C40.2746 146.246 40.1983 146.201 40.1137 146.188C40.0241 146.175 39.9333 146.199 39.8606 146.252C39.7879 146.306 39.7393 146.386 39.725 146.476C39.7188 146.52 39.7223 146.565 39.7352 146.608C39.7482 146.65 39.7702 146.69 39.7999 146.723C40.0873 147.066 40.4654 147.322 40.891 147.46C41.2942 147.599 41.717 147.673 42.1434 147.679C42.5598 147.682 42.9733 147.61 43.3641 147.466C43.7137 147.341 44.0257 147.129 44.2709 146.85C44.4985 146.59 44.6215 146.254 44.6164 145.908C44.6166 145.635 44.543 145.366 44.4034 145.131C44.2309 144.853 43.9861 144.627 43.6951 144.478Z" fill="white"/>
<path d="M53.7975 141.305C53.7062 141.303 53.6176 141.336 53.5499 141.397C53.5169 141.43 53.4911 141.47 53.4743 141.514C53.4574 141.557 53.4498 141.604 53.452 141.651V145.169C53.4558 145.499 53.3551 145.823 53.1641 146.093C52.9626 146.373 52.6931 146.597 52.381 146.744C52.0281 146.905 51.6447 146.988 51.2568 146.988C50.8688 146.988 50.4854 146.905 50.1325 146.744C49.7998 146.58 49.524 146.32 49.3408 145.998C49.1351 145.615 49.0357 145.183 49.0529 144.748V141.651C49.0539 141.605 49.0458 141.559 49.029 141.517C49.0122 141.474 48.987 141.436 48.955 141.403C48.9226 141.371 48.8839 141.345 48.8413 141.329C48.7987 141.312 48.7532 141.304 48.7074 141.305C48.6616 141.304 48.616 141.311 48.5734 141.328C48.5307 141.345 48.492 141.37 48.4596 141.403C48.4272 141.435 48.4018 141.474 48.385 141.517C48.3682 141.559 48.3604 141.605 48.362 141.651V144.743C48.3443 145.3 48.4776 145.852 48.7477 146.34C48.9919 146.765 49.3525 147.111 49.787 147.337C50.2477 147.568 50.7573 147.684 51.2726 147.676C51.7432 147.683 52.2078 147.57 52.6228 147.348C52.9445 147.173 53.2275 146.935 53.4549 146.649V147.25C53.4538 147.296 53.462 147.341 53.4788 147.384C53.4956 147.426 53.5207 147.465 53.5528 147.498C53.6191 147.562 53.7081 147.597 53.8003 147.596C53.8471 147.598 53.8938 147.591 53.9374 147.574C53.9811 147.557 54.0207 147.531 54.0537 147.498C54.1154 147.43 54.1485 147.342 54.1458 147.25V141.651C54.1482 141.604 54.1413 141.558 54.1255 141.515C54.1097 141.471 54.0852 141.431 54.0537 141.397C54.0195 141.365 53.9792 141.341 53.9351 141.325C53.8911 141.309 53.8442 141.302 53.7975 141.305Z" fill="white"/>
<path d="M60.0651 146.905H59.7772C59.6599 146.904 59.545 146.872 59.4439 146.812C59.3429 146.752 59.2593 146.667 59.2014 146.565C59.0428 146.306 58.9646 146.005 58.9768 145.702V138.959C58.976 138.891 58.9555 138.825 58.9178 138.768C58.88 138.712 58.8267 138.667 58.7642 138.64C58.7017 138.613 58.6327 138.605 58.5657 138.617C58.4987 138.629 58.4365 138.659 58.3866 138.706C58.3533 138.739 58.3274 138.778 58.3105 138.822C58.2936 138.865 58.2862 138.912 58.2887 138.959V145.702C58.2816 146.04 58.3463 146.377 58.4788 146.689C58.5908 146.955 58.7729 147.186 59.0056 147.357C59.2325 147.518 59.5047 147.603 59.7829 147.599H60.0133C60.0599 147.601 60.1065 147.593 60.15 147.576C60.1936 147.559 60.2333 147.534 60.2666 147.501C60.3284 147.434 60.3614 147.345 60.3587 147.253C60.363 147.162 60.3344 147.072 60.2781 147C60.2521 146.969 60.2194 146.945 60.1825 146.928C60.1456 146.912 60.1055 146.904 60.0651 146.905Z" fill="white"/>
<path d="M66.7558 146.894H66.5025C66.3051 146.901 66.1085 146.867 65.9247 146.795C65.741 146.722 65.574 146.613 65.4344 146.474C65.2956 146.33 65.1873 146.16 65.1161 145.973C65.0449 145.787 65.0121 145.588 65.0198 145.388V142.158H66.5514C66.6339 142.158 66.713 142.125 66.7713 142.067C66.8296 142.009 66.8623 141.93 66.8623 141.847C66.8623 141.765 66.8296 141.686 66.7713 141.627C66.713 141.569 66.6339 141.536 66.5514 141.536H65.0342V139.656C65.0365 139.609 65.0289 139.561 65.0121 139.516C64.9953 139.472 64.9695 139.431 64.9363 139.397C64.9024 139.363 64.8618 139.337 64.8172 139.321C64.7725 139.304 64.7248 139.296 64.6772 139.299C64.6318 139.298 64.5866 139.305 64.5445 139.322C64.5023 139.339 64.4642 139.365 64.4325 139.397C64.3993 139.431 64.3735 139.472 64.3567 139.516C64.3398 139.561 64.3323 139.609 64.3346 139.656V141.53H63.4364C63.3539 141.53 63.2748 141.563 63.2165 141.621C63.1582 141.68 63.1254 141.759 63.1254 141.841C63.1254 141.924 63.1582 142.003 63.2165 142.061C63.2748 142.119 63.3539 142.152 63.4364 142.152H64.3346V145.382C64.3287 145.777 64.4228 146.166 64.6081 146.514C64.787 146.842 65.0543 147.113 65.3797 147.297C65.7247 147.486 66.1119 147.585 66.5053 147.585H66.7702C66.8178 147.587 66.8653 147.579 66.9098 147.563C66.9544 147.546 66.995 147.52 67.0293 147.487C67.0619 147.455 67.0874 147.416 67.1042 147.373C67.1211 147.331 67.1289 147.285 67.1272 147.239C67.1295 147.192 67.122 147.144 67.1051 147.1C67.0883 147.055 67.0625 147.014 67.0293 146.98C66.9928 146.947 66.9494 146.922 66.9021 146.907C66.8549 146.892 66.8049 146.887 66.7558 146.894Z" fill="white"/>
<path d="M71.4256 141.305C71.3342 141.302 71.2454 141.335 71.178 141.397C71.1445 141.43 71.1185 141.469 71.1016 141.513C71.0847 141.557 71.0774 141.604 71.0801 141.65V147.25C71.0784 147.296 71.0862 147.341 71.103 147.384C71.1199 147.427 71.1454 147.465 71.178 147.497C71.2461 147.561 71.3355 147.596 71.4284 147.596C71.5213 147.596 71.6108 147.561 71.6789 147.497C71.7407 147.43 71.7737 147.341 71.771 147.25V141.65C71.7734 141.604 71.7665 141.558 71.7507 141.514C71.7349 141.471 71.7105 141.431 71.6789 141.397C71.6448 141.366 71.6049 141.341 71.5614 141.326C71.5179 141.31 71.4718 141.303 71.4256 141.305Z" fill="white"/>
<path d="M71.4254 138.913C71.2893 138.913 71.1573 138.96 71.0512 139.046C70.994 139.094 70.9491 139.155 70.92 139.224C70.891 139.293 70.8787 139.368 70.8842 139.443C70.8824 139.514 70.8953 139.585 70.922 139.652C70.9487 139.718 70.9888 139.778 71.0397 139.829C71.0881 139.879 71.1463 139.918 71.2107 139.945C71.2751 139.972 71.3442 139.985 71.4139 139.984C71.4854 139.986 71.5565 139.973 71.6229 139.946C71.6893 139.919 71.7496 139.88 71.8001 139.829C71.8507 139.778 71.8905 139.718 71.9172 139.652C71.9438 139.585 71.9567 139.514 71.9552 139.443C71.9599 139.368 71.9474 139.293 71.9184 139.225C71.8894 139.156 71.8449 139.094 71.7882 139.046C71.6861 138.961 71.558 138.914 71.4254 138.913Z" fill="white"/>
<path d="M80.7333 141.565C80.2718 141.333 79.7611 141.216 79.2449 141.225C78.7753 141.22 78.312 141.332 77.8975 141.553C77.5747 141.726 77.2898 141.962 77.0597 142.247V141.645C77.0637 141.599 77.0574 141.552 77.0415 141.508C77.0255 141.465 77.0002 141.425 76.9673 141.392C76.9344 141.359 76.8947 141.334 76.851 141.318C76.8073 141.302 76.7606 141.296 76.7142 141.3C76.6229 141.297 76.5341 141.33 76.4667 141.392C76.4336 141.425 76.4079 141.465 76.391 141.508C76.3742 141.552 76.3666 141.598 76.3688 141.645V147.245C76.3672 147.291 76.375 147.336 76.3918 147.379C76.4086 147.421 76.434 147.46 76.4664 147.493C76.4988 147.525 76.5375 147.55 76.5802 147.567C76.6228 147.584 76.6684 147.592 76.7142 147.59C76.761 147.592 76.8076 147.585 76.8512 147.568C76.8948 147.551 76.9345 147.525 76.9676 147.492C77.0294 147.425 77.0624 147.336 77.0597 147.245V143.732C77.0554 143.399 77.1562 143.073 77.3476 142.8C77.545 142.518 77.8145 142.294 78.1278 142.152C78.4776 141.99 78.8595 141.909 79.2449 141.916C79.6362 141.908 80.0238 141.993 80.3763 142.163C80.7084 142.326 80.9848 142.584 81.1709 142.903C81.3779 143.288 81.4773 143.722 81.4588 144.158V147.25C81.4571 147.296 81.4649 147.342 81.4818 147.385C81.4986 147.427 81.5241 147.466 81.5567 147.498C81.6234 147.561 81.7114 147.595 81.8028 147.595C81.8943 147.595 81.9823 147.561 82.049 147.498C82.0815 147.466 82.1071 147.427 82.1239 147.385C82.1408 147.342 82.1486 147.296 82.1469 147.25V144.158C82.1656 143.599 82.0344 143.044 81.7668 142.552C81.5262 142.129 81.1669 141.786 80.7333 141.565Z" fill="white"/>
<path d="M92.0763 142.788C91.8106 142.309 91.4195 141.911 90.9449 141.637C90.4371 141.365 89.8699 141.222 89.2938 141.222C88.7177 141.222 88.1505 141.365 87.6427 141.637C87.1619 141.91 86.7639 142.308 86.4911 142.788C86.2006 143.295 86.0533 143.871 86.065 144.455C86.054 145.034 86.1971 145.605 86.4796 146.111C86.7509 146.593 87.1492 146.991 87.6312 147.262C88.1414 147.546 88.7175 147.689 89.301 147.677C89.8018 147.679 90.295 147.554 90.7347 147.314C91.1482 147.088 91.4902 146.751 91.7222 146.341C91.7481 146.295 91.7683 146.246 91.7913 146.2V146.71C91.7988 147.18 91.6879 147.644 91.4689 148.06C91.2673 148.45 90.9639 148.778 90.5908 149.01C90.208 149.243 89.7666 149.363 89.3183 149.355C88.8999 149.367 88.4843 149.283 88.1025 149.112C87.7207 148.941 87.3825 148.685 87.113 148.365C87.0869 148.324 87.0523 148.29 87.0115 148.264C86.9707 148.238 86.9248 148.221 86.8769 148.215C86.7827 148.199 86.6859 148.22 86.6063 148.273C86.572 148.298 86.5439 148.331 86.524 148.369C86.5041 148.407 86.4929 148.449 86.4911 148.492C86.4935 148.58 86.526 148.666 86.5833 148.733C86.9065 149.146 87.323 149.475 87.7985 149.695C88.274 149.915 88.7949 150.018 89.3183 149.997C89.8805 150.009 90.4351 149.865 90.9204 149.581C91.4058 149.297 91.8029 148.884 92.0677 148.388C92.3483 147.874 92.4911 147.295 92.4823 146.71V144.455C92.4963 143.874 92.3563 143.298 92.0763 142.788ZM91.4775 145.785C91.271 146.164 90.9629 146.478 90.5879 146.692C90.1901 146.916 89.7399 147.029 89.2837 147.02C88.8248 147.029 88.3717 146.916 87.9709 146.692C87.5931 146.48 87.2828 146.166 87.0756 145.785C86.8636 145.372 86.7531 144.915 86.7531 144.451C86.7531 143.987 86.8636 143.529 87.0756 143.117C87.2833 142.736 87.5935 142.421 87.9709 142.207C88.3726 141.986 88.8252 141.873 89.2837 141.881C89.7395 141.873 90.1894 141.986 90.5879 142.207C90.9631 142.422 91.2712 142.737 91.4775 143.117C91.6894 143.529 91.8 143.987 91.8 144.451C91.8 144.915 91.6894 145.372 91.4775 145.785Z" fill="white"/>
</svg>
