<svg width="64" height="64" viewBox="0 0 64 64" fill="none" xmlns="http://www.w3.org/2000/svg">
<path d="M17.69 19.6389C17.1496 19.2976 16.6447 18.9032 16.1829 18.4614C15.5169 17.7748 14.9333 17.5997 13.9377 17.864C10.6008 18.7532 7.37376 16.7517 6.72836 13.5487C6.5522 12.764 6.54124 11.9511 6.69617 11.1619C6.85111 10.3726 7.16855 9.62424 7.62831 8.96429C8.08808 8.30435 8.68012 7.74727 9.36679 7.32848C10.0535 6.90968 10.8198 6.63833 11.617 6.53166C15.2766 5.96865 18.8503 9.17508 18.0367 12.8175C17.4703 15.3682 18.6684 16.4634 20.3746 17.8057C23.121 15.7459 26.1558 14.304 29.6437 13.8474C29.8277 13.7671 29.9876 13.6404 30.108 13.4797C30.2283 13.3191 30.3049 13.1299 30.3303 12.9308C30.2033 12.2957 29.987 11.4271 29.5201 11.1559C27.7144 10.126 26.5162 8.72192 26.2313 6.62435C26.016 5.25508 26.3053 3.8542 27.0453 2.68221C27.7854 1.51022 28.9259 0.646863 30.2548 0.252682C31.6093 -0.160576 33.0682 -0.0644647 34.3567 0.522923C35.6453 1.11031 36.6748 2.14846 37.2513 3.44195C37.8376 4.73125 37.9256 6.192 37.4983 7.54235C37.071 8.8927 36.1587 10.0369 34.9374 10.7543C34.0345 11.2727 33.4132 11.7842 33.6947 12.8381C33.808 13.2569 34.2749 13.8268 34.6525 13.8886C37.9453 14.4212 41.0466 15.7887 43.6607 17.8606C44.4709 17.0779 45.3772 16.3775 46.0295 15.4884C46.2973 15.1245 46.0913 14.3383 45.9643 13.7719C45.2399 10.5792 47.0251 7.47917 50.0839 6.68271C51.5334 6.28351 53.0813 6.46363 54.4004 7.18501C55.7196 7.90639 56.7064 9.11248 57.1524 10.5483C58.0725 13.638 56.4143 16.9028 53.3761 17.7816C52.5213 18.0254 51.4399 18.252 50.6915 17.9361C48.9441 17.2015 48.0412 18.1764 47.0697 19.2441L46.1256 20.2946C48.1099 22.9209 49.5037 25.76 50.0495 28.9904C50.1079 29.3337 50.767 29.8418 51.0485 29.7835C51.7351 29.6427 52.6106 29.3852 52.9401 28.8703C54.5949 26.2921 56.8984 25.1729 59.5899 25.8595C60.8234 26.1541 61.9248 26.8486 62.7222 27.8347C63.5196 28.8209 63.9681 30.0433 63.9979 31.3111C64.0322 32.579 63.6504 33.8232 62.9108 34.8536C62.1712 35.884 61.1145 36.6438 59.9023 37.0168C57.3996 37.7892 54.6326 36.8898 53.3418 34.6137C52.6277 33.3401 51.8519 32.8766 50.8597 33.1856C49.3973 36.852 48.0241 40.3091 46.6474 43.7627L45.8544 43.9584C46.5306 44.3902 47.1743 44.8709 47.7803 45.3968C48.4498 46.0525 48.9922 46.2722 50.0152 46.0044C54.2309 44.8921 58.0965 48.3595 57.3653 52.4619C57.1317 53.9491 56.3285 55.287 55.1258 56.1924C53.9231 57.0977 52.4153 57.4996 50.9215 57.3128C47.7254 56.8768 45.2708 54.2231 45.9643 51.0956C46.5204 48.5758 45.3463 47.4497 43.6573 46.0937C40.9109 48.1535 37.8692 49.6228 34.3881 50.0623C34.2082 50.1466 34.053 50.2759 33.9376 50.4376C33.8221 50.5994 33.7503 50.7882 33.729 50.9857C33.8972 51.6723 34.1238 52.5409 34.6319 52.867C37.059 54.4291 38.2091 56.6433 37.6976 59.2044C37.4637 60.4818 36.8058 61.6431 35.8302 62.5003C34.8546 63.3575 33.6184 63.8606 32.3215 63.9282C31.0241 63.9884 29.7434 63.6166 28.6799 62.8712C27.6164 62.1257 26.8301 61.0487 26.4441 59.8086C26.0494 58.5684 26.0913 57.2305 26.5629 56.0175C27.0345 54.8045 27.9073 53.7895 29.0361 53.1417C29.9939 52.6061 30.6668 52.0809 30.344 50.9342C30.2445 50.5909 29.8703 50.0897 29.5716 50.0485C26.1386 49.5679 23.1244 48.1672 19.9798 45.7813C19.5472 46.3958 19.2108 47.103 18.6718 47.5905C17.8582 48.3252 17.6865 49.0015 17.9852 50.1103C18.3719 51.4751 18.2315 52.9355 17.5917 54.2016C16.952 55.4677 15.8597 56.4471 14.5316 56.9454C13.217 57.4688 11.7559 57.4905 10.4265 57.0062C9.09701 56.5219 7.99214 55.5655 7.32227 54.3192C6.80504 53.4173 6.54878 52.3894 6.58212 51.3503C6.61547 50.3112 6.9371 49.3018 7.51108 48.435C8.73324 46.4816 10.6866 45.2766 12.8872 45.8774C15.3795 46.564 16.5605 45.335 17.8479 43.5567C15.7469 40.721 14.2467 37.5661 13.8587 33.9443C13.8278 33.6559 13.2065 33.1547 12.9833 33.213C12.2967 33.3916 11.4384 33.6319 11.1089 34.1468C9.37521 36.8383 6.68373 37.9781 3.92359 37.0065C3.04508 36.7047 2.25171 36.1967 1.60997 35.5251C0.968225 34.8535 0.496807 34.0378 0.235218 33.1465C-0.0263713 32.2552 -0.0705112 31.3142 0.106497 30.4023C0.283506 29.4904 0.676506 28.6342 1.25256 27.9055C1.82862 27.1768 2.57096 26.5967 3.41736 26.214C4.26376 25.8312 5.18956 25.657 6.1172 25.7057C7.04483 25.7545 7.94726 26.0249 8.74887 26.4942C9.55048 26.9636 10.2279 27.6183 10.7244 28.4034C11.7371 29.962 11.7371 29.962 13.3609 29.7766L17.69 19.6389ZM46.9186 32.0458C46.9362 29.0933 46.0782 26.2019 44.453 23.7369C42.8278 21.2719 40.5083 19.344 37.7878 18.1968C35.0673 17.0496 32.0677 16.7345 29.1682 17.2915C26.2686 17.8485 23.5993 19.2525 21.4974 21.326C19.3956 23.3996 17.9556 26.0497 17.3593 28.9414C16.7631 31.8331 17.0375 34.8366 18.1477 37.5725C19.258 40.3083 21.1543 42.6537 23.597 44.3121C26.0398 45.9706 28.9193 46.8677 31.8717 46.8902C35.833 46.9085 39.6402 45.3568 42.4602 42.5748C45.2802 39.7928 46.8833 36.007 46.9186 32.0458ZM8.32471 31.5927C8.31122 30.9295 8.04503 30.2966 7.58051 29.8231C7.116 29.3497 6.48823 29.0715 5.82547 29.0454C5.16537 29.0312 4.52669 29.2799 4.04995 29.7367C3.5732 30.1935 3.29744 30.821 3.28333 31.4811C3.26922 32.1412 3.51791 32.7799 3.97469 33.2566C4.43148 33.7334 5.05895 34.0091 5.71905 34.0232C6.38394 34.0357 7.0276 33.789 7.51389 33.3354C8.00018 32.8818 8.29095 32.2568 8.32471 31.5927ZM31.937 8.28936C32.5988 8.2702 33.2281 7.99779 33.695 7.52831C34.162 7.05882 34.431 6.42806 34.4465 5.7661C34.4055 5.13692 34.1406 4.54321 33.6998 4.09236C33.2591 3.64151 32.6715 3.3633 32.0434 3.30806C31.3815 3.31115 30.7454 3.56572 30.2642 4.02021C29.7829 4.4747 29.4924 5.09512 29.4515 5.7558C29.46 6.41685 29.7231 7.04916 30.1861 7.52109C30.649 7.99302 31.2762 8.26821 31.937 8.28936ZM12.3894 49.0598C11.7415 49.0726 11.1238 49.3365 10.6668 49.796C10.2097 50.2555 9.94903 50.8745 9.93968 51.5225C9.93032 52.1705 10.173 52.7968 10.6166 53.2692C11.0602 53.7417 11.67 54.0234 12.3173 54.0548C12.6523 54.0711 12.9871 54.0198 13.3019 53.904C13.6166 53.7881 13.9048 53.6101 14.1493 53.3806C14.3938 53.151 14.5896 52.8746 14.7251 52.5678C14.8605 52.2609 14.9328 51.93 14.9376 51.5946C14.9425 51.2593 14.8798 50.9264 14.7532 50.6158C14.6267 50.3052 14.439 50.0232 14.2012 49.7867C13.9634 49.5502 13.6805 49.3639 13.3692 49.239C13.0579 49.1142 12.7247 49.0532 12.3894 49.0598ZM54.1005 12.282C54.071 11.6225 53.7916 10.9991 53.3192 10.5381C52.8467 10.0771 52.2166 9.81318 51.5566 9.79989C50.8952 9.8302 50.2719 10.1179 49.8196 10.6015C49.3674 11.0852 49.1222 11.7264 49.1364 12.3884C49.1601 13.0228 49.4266 13.6238 49.8809 14.0672C50.3352 14.5106 50.9425 14.7625 51.5772 14.7709C52.2403 14.7701 52.8764 14.5086 53.3484 14.043C53.8205 13.5774 54.0906 12.9449 54.1005 12.282ZM58.1618 33.934C58.489 33.9386 58.8139 33.8777 59.1172 33.7549C59.4206 33.632 59.6964 33.4498 59.9283 33.2189C60.1602 32.9879 60.3435 32.7129 60.4676 32.4101C60.5917 32.1072 60.6539 31.7826 60.6507 31.4553C60.6321 30.8252 60.3783 30.2249 59.9392 29.7725C59.5002 29.3201 58.9077 29.0485 58.2785 29.011C57.9528 29.0005 57.6283 29.0544 57.3235 29.1695C57.0187 29.2847 56.7397 29.4589 56.5024 29.6822C56.2651 29.9055 56.0742 30.1734 55.9407 30.4706C55.8072 30.7678 55.7336 31.0885 55.7243 31.4141C55.7083 31.7423 55.7598 32.0703 55.8755 32.3778C55.9913 32.6853 56.1689 32.9658 56.3973 33.2019C56.6257 33.4381 56.9002 33.6249 57.2037 33.7508C57.5071 33.8767 57.8332 33.9391 58.1618 33.934ZM14.9058 12.33C14.8861 11.6685 14.6155 11.0392 14.1488 10.5699C13.6821 10.1007 13.0543 9.82658 12.3928 9.80332C11.7315 9.8276 11.1044 10.1033 10.6393 10.574C10.1743 11.0448 9.90633 11.6753 9.89016 12.3369C9.91418 12.9859 10.1889 13.6004 10.6566 14.0511C11.1243 14.5018 11.7485 14.7536 12.398 14.7536C13.0475 14.7536 13.6717 14.5018 14.1394 14.0511C14.607 13.6004 14.8818 12.9859 14.9058 12.3369V12.33ZM34.4946 58.1916C34.494 57.5303 34.2367 56.8951 33.7769 56.4199C33.317 55.9446 32.6906 55.6666 32.0297 55.6443C31.3653 55.6425 30.7273 55.9042 30.2556 56.3721C29.7838 56.8399 29.5169 57.4758 29.5133 58.1401C29.529 58.772 29.7804 59.3752 30.218 59.8312C30.6556 60.2873 31.2479 60.5633 31.8786 60.605C32.542 60.6186 33.1849 60.375 33.6725 59.9251C34.1602 59.4751 34.4548 58.8539 34.4946 58.1916ZM54.0936 51.6002C54.1074 50.9506 53.8648 50.3217 53.4184 49.8496C52.972 49.3775 52.3576 49.1001 51.7082 49.0775C51.0589 49.055 50.4267 49.289 49.9486 49.729C49.4705 50.169 49.1849 50.7796 49.1535 51.4286C49.1316 52.089 49.3671 52.7321 49.8103 53.2221C50.2536 53.7121 50.8699 54.0107 51.5292 54.0548C52.1897 54.0521 52.824 53.7959 53.3011 53.3392C53.7783 52.8825 54.062 52.26 54.0936 51.6002Z" fill="white"/>
<path d="M32.1327 26.711C29.6609 26.0862 27.3265 25.5884 25.0744 24.8606C24.7259 24.7113 24.4176 24.4818 24.1748 24.1906C23.9319 23.8994 23.7614 23.5549 23.6772 23.1853C23.6291 22.7184 24.4428 21.9219 25.0504 21.6644C29.7468 19.663 34.4946 19.6424 39.1807 21.6988C39.7746 21.9597 40.5127 22.7287 40.5196 23.2574C40.5264 23.786 39.7883 24.6306 39.2082 24.8125C36.8909 25.554 34.5152 26.0999 32.1327 26.711Z" fill="white"/>
<path d="M40.4783 37.6965C41.0173 41.236 40.4783 42.1595 37.2066 43.0349C34.0592 43.9113 30.7389 43.961 27.5667 43.1791C23.7149 42.235 23.3338 41.72 23.6359 37.7C29.2558 40.0756 34.8756 40.1511 40.4783 37.6965Z" fill="white"/>
<path d="M23.6772 31.8159C29.2661 34.219 34.8551 34.2499 40.4303 31.8159C41.0791 35.2146 40.4715 36.2788 37.2204 37.1543C33.9489 38.0561 30.4979 38.0821 27.2132 37.2298C23.7287 36.3269 23.2309 35.551 23.6772 31.8159Z" fill="white"/>
<path d="M40.5642 26.1787C40.8388 29.7044 40.3857 30.4322 37.1586 31.2767C33.8267 32.1694 30.3185 32.1694 26.9866 31.2767C23.7253 30.4082 23.2927 29.6975 23.6635 26.2783C31.2985 28.6161 34.0964 28.6127 40.5642 26.1787Z" fill="white"/>
</svg>
